# xmcd
#
# Track frame offsets:
#	150
#	11321
#	24047
#	36929
#	50635
#	61709
#	70928
#	82224
#	91004
#	103103
#	113090
#	131451
#
# Disc length: 1892 seconds
# Revision: 1
# Processed by: cddbd v1.5.2PL0 Copyright (c) Steve Scherf et al.
# Submitted via: dBpowerAMP V12.0
#
DISCID=8e07620c
DTITLE=The Carter Family - Together Again
DYEAR=2006
DGENRE=Country
TTITLE0=Foggy Mountain Top
TTITLE1=In The Valley of The Shenandoah
TTITLE2=Clinch Mountain Home
TTITLE3=The Winding Stream
TTITLE4=Blue Eyes
TTITLE5=Lomesome Valley
TTITLE6=Worried Man Blues
TTITLE7=Home by The Sea
TTITLE8=I Will Never Marry
TTITLE9=You Are my Flower
TTITLE10=Diamonds in The Rough
TTITLE11=Amber Trusses
EXTD=
EXTT0=
EXTT1=
EXTT2=
EXTT3=
EXTT4=
EXTT5=
EXTT6=
EXTT7=
EXTT8=
EXTT9=
EXTT10=
EXTT11=
PLAYORDER=
